<?xml version="1.0" encoding="utf-8"?>
<!-- Generator: Adobe Illustrator 19.0.0, SVG Export Plug-In . SVG Version: 6.00 Build 0)  -->
<svg version="1.1" id="Layer_1" xmlns:serif="http://www.serif.com/"
	 xmlns="http://www.w3.org/2000/svg" xmlns:xlink="http://www.w3.org/1999/xlink" x="0px" y="0px" viewBox="-192 70.3 456 456"
	 style="enable-background:new -192 70.3 456 456;" xml:space="preserve">
<style type="text/css">
	.st0{fill:#89939E;stroke:#89939E;stroke-miterlimit:10;}
	.st1{display:none;fill:#89939E;stroke:#89939E;stroke-miterlimit:10;}
</style>
<g transform="matrix(1,0,0,1,0.8839462535025291,0.40971659919023296)">
	<g id="tight-bounds" transform="matrix(1,0,0,1,-0.21568288585461914,-0.09999999999999432)">
		<g>
			<g transform="matrix(1,0,0,1,0,95.94190607350097)">
				<g>
					<g>
						<g>
							<g id="textblocktransform">
								<g>
									<g transform="matrix(1,0,0,1,0,0)">
										<path id="text-0" class="st0" d="M-33,223.2l5.5,0.9l-0.1,4h-24.8l-0.5-2.5c1.4-0.9,3.9-2,6.8-3.4l0,0l-3.4-8.4h-18.7
											l-3.5,9.3l7.3,1l-0.1,4h-21.3l-0.5-2.5c1.6-1,3.9-2,6.5-3l0,0l17.4-42.4l-1-2.5l10.3-2.6L-33,223.2z M-65.5,207.7h14.1
											l-7-18.5L-65.5,207.7z M12.6,213.8L12.6,213.8c0,4.7-1.9,8.4-5.5,11.3c-3.6,3-8.3,4.4-13.8,4.4l0,0c-3,0-6.4-0.5-9.9-1.4
											c-3.5-1-6.5-2.1-8.8-3.6l0,0l-0.1-2.1c0-4.4,0.5-8.4,1.1-12.5l0,0h5.5l3.9,10.9c3.4,1.4,7,2.1,11.3,2.1l0,0
											c2.9-1.4,4.4-3.5,4.4-6.5l0,0c0-2.6-1.6-5.3-5.3-6.9l0,0l-11.4-5.8c-6.3-3.5-9.3-8.1-9.3-13.3l0,0c0-4.5,1.9-8.3,5.5-11.1
											c3.9-2.9,8.6-4.4,14.5-4.4l0,0c5.3,0,10.4,1,15.5,2.6l0,0c0,5.5-0.5,10.4-1.4,14.3l0,0H2.4l-2.1-8.8
											c-3-1.6-6.8-2.1-10.9-2.1l0,0c-2.5,1.4-3.5,3.6-3.5,6.4l0,0c0,1.6,0.6,3,2,4.2c1.4,1.4,4.2,2.9,8.4,4.9
											c4.2,1.9,7.4,3.5,9.3,5c2,1.4,3.6,3,4.9,5.3C12,208.6,12.6,210.9,12.6,213.8z M34.8,220.3L34.8,220.3c1.4,0,3.6-0.4,6.5-1
											l0,0l0.9,3.9l-12.1,6c-2.1,0.1-4.4-0.6-6.4-2.1c-2-1.6-3-3.5-3-5.5l0,0v-22.9l-5.5,0.1l-0.4-4c2-1.4,4-2.6,6.4-3.9l0,0
											l3.9-10.1h5.4l1.4,10.1h10.6l0.1,3.4l-3.9,4.5h-6.8v17.9c0,1.4,0.1,2.1,0.6,2.6C32.9,220.2,33.8,220.3,34.8,220.3z
											 M45.2,209.1c0-5.9,1.9-10.6,5.5-14.5s8.1-5.5,13.5-5.5c5.5,0,9.9,1.9,13.5,5.5c3.5,3.9,5.4,8.6,5.4,14.7l0,0
											c0,6-1.6,10.9-5.3,14.5c-3.5,3.6-7.9,5.5-13.3,5.5l0,0c-5.5,0-10.1-1.9-13.6-5.9C47,219.8,45.2,215,45.2,209.1z
											 M67.7,222.7L67.7,222.7c2.5-1.6,3.6-5.9,3.6-12.3l0,0c0-4.2-0.6-7.8-1.9-10.4c-1.4-2.6-3.1-4-5.9-4l0,0
											c-1.6,0-2.9,0.4-4,1.1l0,0c-1.9,2.5-2.6,6.5-2.6,12.1l0,0c0,4.2,0.6,7.5,2,10.3c1.4,2.5,3.4,4,6.3,4l0,0
											C65.8,223.1,66.7,223,67.7,222.7z M102.8,199.2l7.8-8.8c1.1-0.5,2.5-0.6,3.9-0.6l0,0c2.6,0,5,0.9,6.5,2.4l0,0
											c-0.1,5.8-1.1,10.6-2.9,14.7l0,0h-6l-1.5-8.8c-2.9,2.1-5.5,4.7-7.9,7.5l0,0v15.9c3.6,0.6,6.5,1.6,8.4,2.6l0,0l-0.4,3.9
											h-25l-0.1-2.6c1.4-0.9,3.4-1.6,5.9-2.5l0,0v-26.4l-5.9-0.6l-0.5-3.9c4.5-1.6,9.1-2.5,14-2.6l0,0l3.9,3.5L102.8,199.2
											L102.8,199.2L102.8,199.2L102.8,199.2L102.8,199.2z M157.1,204.8l-4.5,4.5l-19.9-0.4c0.1,3.9,1.4,6.9,3.5,9.1
											c2.1,2.1,5,3.1,8.4,3.1l0,0c2.6,0,6.3-1,9.9-2.6l0,0l1.6,4.2l-12.3,6.4l-2.5,0.1c-5.8,0-10.4-1.9-14.1-5.5
											c-3.9-3.6-5.5-8.3-5.5-13.8l0,0c0-5.9,1.9-10.8,5.5-14.7c3.9-4,8.3-6,13.6-6l0,0c4.7,0,8.4,1.4,11.4,4.4
											C155.5,196.4,157.1,200.2,157.1,204.8L157.1,204.8z M138.2,195.2L138.2,195.2c-2.6,1.6-4.4,4.4-5.3,8.6l0,0l13.5-0.6
											c-0.4-2.1-1.4-4.2-2.9-5.5C142.2,195.8,140.3,195.2,138.2,195.2z"/>
									</g>
								</g>
							</g>
						</g>
					</g>
				</g>
			</g>
			<path class="st0" d="M-85.9,264.5v-88.4h242.9v88.4h-5V181H-80.9v83.5H-85.9 M-85.9,331.4v88.4h242.9v-88.4h-5v83.4H-80.9v-83.4
				L-85.9,331.4"/>
		</g>
		<rect x="-85.9" y="175.2" class="st1" width="242.9" height="245.6"/>
	</g>
</g>
</svg>
