<?xml version="1.0" encoding="utf-8"?>
<!-- Generator: Adobe Illustrator 19.0.0, SVG Export Plug-In . SVG Version: 6.00 Build 0)  -->
<svg version="1.1" id="textblock" xmlns:svgjs="http://svgjs.dev/svgjs"
	 xmlns="http://www.w3.org/2000/svg" xmlns:xlink="http://www.w3.org/1999/xlink" x="0px" y="0px" viewBox="79 -208.7 1000 1012"
	 style="enable-background:new 79 -208.7 1000 1012;" xml:space="preserve">
<style type="text/css">
	.st0{fill:#231F20;stroke:#231F20;stroke-miterlimit:10;}
	.st1{display:none;fill:#231F20;stroke:#231F20;stroke-miterlimit:10;}
</style>
<g transform="matrix(1,0,0,1,0.8839462535025291,0.40971659919023296)">
	<g id="tight-bounds" transform="matrix(1,0,0,1,-0.21568288585461914,-0.09999999999999432)">
		<g>
			<g transform="matrix(1,0,0,1,0,95.94190607350097)">
				<g>
					<g>
						<g>
							<g id="textblocktransform">
								<g>
									<g transform="matrix(1,0,0,1,0,0)">
										<path id="text-0" class="st0" d="M463.2,236.6l9.4,1.4l-0.3,6.7h-41.6l-0.8-4.3c2.4-1.4,6.4-3.4,11.4-5.6l0,0l-5.6-14.2
											h-31.5l-5.9,15.6l12.1,1.7l-0.3,6.7h-35.7l-0.8-4.3c2.7-1.7,6.4-3.4,11-5.2l0,0l29.1-71.6l-1.7-4.2l17.2-4.6L463.2,236.6z
											 M408.4,210.6h23.7l-11.8-31.2L408.4,210.6z M539.9,220.8L539.9,220.8c0,7.9-3.1,14.2-9.4,19.1c-6.2,5-14,7.5-23.3,7.5
											l0,0c-5.2,0-10.8-0.8-16.6-2.3c-6-1.7-11-3.7-14.8-6.2l0,0l-0.3-3.7c0-7.3,0.8-14.2,2.1-20.9l0,0h9.5l6.4,18.4
											c5.6,2.4,11.8,3.8,19.1,3.8l0,0c4.9-2.3,7.3-6,7.3-11l0,0c0-4.6-2.9-8.7-8.7-11.7l0,0l-19.6-10
											c-10.4-6-15.6-13.5-15.6-22.4l0,0c0-7.6,3.2-13.9,9.5-18.6c6.4-4.9,14.5-7.3,24.4-7.3l0,0c8.8,0,17.6,1.7,26.1,4.6l0,0
											c0,9.4-0.8,17.5-2.3,24.2l0,0h-10.4l-3.8-14.8c-5.2-2.7-11.3-3.8-18.4-3.7l0,0c-4.2,2.4-6,6.2-6,10.8l0,0
											c0,2.7,1.2,5,3.5,7.2c2.3,2.3,7,4.9,14.2,8.2c7.2,3.2,12.5,6,15.7,8.4c3.4,2.3,6.2,5.2,8.2,8.7
											C538.9,212,539.9,216.1,539.9,220.8z M577.1,231.8L577.1,231.8c2.4,0,6.2-0.6,11-1.7l0,0l1.4,6.4l-20.4,10.1
											c-3.8,0.3-7.5-1.2-10.9-3.8c-3.4-2.7-5.2-5.9-5.2-9.3l0,0v-38.2l-9.3,0.3l-0.6-6.9c3.4-2.3,6.9-4.5,10.8-6.4l0,0l6.6-17.1
											h9l2.3,17.1h18l0.3,5.8l-6.4,7.6h-11.4v30.1c0,2.3,0.3,3.8,1,4.6C574.1,231.5,575.3,231.8,577.1,231.8z M594.7,212.8
											c0-10,3.1-18,9.3-24.3c6.2-6.4,13.7-9.4,22.8-9.4c9.3,0,16.6,3.2,22.7,9.5c6,6.4,9,14.6,9,24.7l0,0
											c0,10.2-2.9,18.4-8.8,24.5c-5.9,6.2-13.3,9.3-22.3,9.3l0,0c-9.3,0-17-3.2-23.1-9.8C597.7,231.1,594.7,222.8,594.7,212.8z
											 M632.6,235.9L632.6,235.9c4.2-2.9,6.2-9.8,6.2-20.7l0,0c0-7.2-1-13.1-3.2-17.7c-2.3-4.6-5.4-6.9-9.8-6.9l0,0
											c-2.7,0-4.9,0.6-6.7,2l0,0c-3.2,4.3-4.6,11-4.6,20.4l0,0c0,7,1.2,12.8,3.4,17.2c2.3,4.3,5.8,6.7,10.4,6.7l0,0
											C629.6,236.5,631.1,236.2,632.6,235.9z M691.8,196.2l13.1-14.8c2.1-0.8,4.3-1.2,6.6-1.2l0,0c4.5,0,8.4,1.4,11,3.9l0,0
											c-0.4,9.7-2.1,18-4.9,24.8l0,0h-10.1l-2.6-14.8c-4.9,3.7-9.3,7.9-13.3,12.8l0,0v26.6c6.2,1.2,11,2.8,14.2,4.5l0,0
											l-0.6,6.4h-42.1l-0.4-4.5c2.4-1.4,5.8-2.8,9.8-4.3l0,0v-44.4l-10-1.2l-0.9-6.4c7.6-2.9,15.4-4.3,23.6-4.6l0,0l6.4,5.9v11
											L691.8,196.2L691.8,196.2L691.8,196.2L691.8,196.2z M783.1,205.7l-7.6,7.6l-33.6-0.4c0.3,6.4,2.3,11.6,6,15.2
											c3.7,3.6,8.4,5.4,14.2,5.4l0,0c4.6,0,10.4-1.7,16.8-4.6l0,0l2.8,7L761,246.7l-4.3,0.3c-9.7,0-17.7-3.1-23.8-9.3
											c-6.4-6.2-9.4-13.9-9.4-23.2l0,0c0-9.8,3.2-18.1,9.5-24.8c6.4-6.7,14-10.1,23.1-10.1l0,0c7.9,0,14.3,2.4,19.4,7.3
											C780.6,191.6,783.1,197.8,783.1,205.7L783.1,205.7z M751.4,189.3L751.4,189.3c-4.5,2.7-7.5,7.5-8.8,14.5l0,0l22.8-1.2
											c-0.6-3.8-2.3-7-4.9-9.5C758,190.6,755,189.3,751.4,189.3z"/>
									</g>
								</g>
							</g>
						</g>
					</g>
				</g>
			</g>
			<path class="st0" d="M374,240.6V91.8h409.1v148.9h-8.4V100.1H382.5v140.6L374,240.6 M374,353.3v148.9h409.1V353.3h-8.4v140.5
				H382.5V353.3H374"/>
		</g>
		<rect x="374" y="90.2" class="st1" width="409.1" height="413.6"/>
	</g>
</g>
</svg>
