<!DOCTYPE svg PUBLIC "-//W3C//DTD SVG 1.1//EN" "http://www.w3.org/Graphics/SVG/1.1/DTD/svg11.dtd">
<!-- Uploaded to: SVG Repo, www.svgrepo.com, Transformed by: SVG Repo Mixer Tools -->
<svg fill="#4C89E4" version="1.1" id="Capa_1" xmlns="http://www.w3.org/2000/svg" xmlns:xlink="http://www.w3.org/1999/xlink" width="800px" height="800px" viewBox="0 0 527.678 527.678" xml:space="preserve" stroke="#4C89E4">
<g id="SVGRepo_bgCarrier" stroke-width="0"/>
<g id="SVGRepo_tracerCarrier" stroke-linecap="round" stroke-linejoin="round"/>
<g id="SVGRepo_iconCarrier"> <g> <g> <path d="M263.877,0C169.782,0,93.512,76.271,93.512,170.213c0,93.941,159.197,349.834,159.197,349.834 c6.196,10.175,16.217,10.175,22.338,0c0,0,159.119-255.816,159.119-349.834C434.166,76.194,357.973,0,263.877,0z M263.877,264.537 c-61.583,0-111.384-49.878-111.384-111.384c0-61.506,49.801-111.461,111.384-111.461c61.582,0,111.384,49.878,111.384,111.384 S325.459,264.537,263.877,264.537z"/> <ellipse cx="263.877" cy="153.153" rx="69.844" ry="69.844"/> </g> </g> </g>
</svg>