<?xml version="1.0" encoding="utf-8"?>
<!-- Generator: Adobe Illustrator 19.0.0, SVG Export Plug-In . SVG Version: 6.00 Build 0)  -->
<svg version="1.1" id="textblock" xmlns:svgjs="http://svgjs.dev/svgjs"
	 xmlns="http://www.w3.org/2000/svg" xmlns:xlink="http://www.w3.org/1999/xlink" x="0px" y="0px" viewBox="79 -208.7 1000 1012"
	 style="enable-background:new 79 -208.7 1000 1012;" xml:space="preserve">
<style type="text/css">
	.st0{fill:#231F20;stroke:#231F20;stroke-miterlimit:10;}
	.st1{fill:#231F20;stroke:#231F20;stroke-width:6;stroke-miterlimit:10;}
	.st2{display:none;fill:#231F20;stroke:#231F20;stroke-miterlimit:10;}
</style>
<g>
	<path id="text-0" class="st0" d="M732.4,396.7l36.1,5.1l-0.5,25.9H608l-3-16.3c9.5-5.8,24.2-12.9,44.2-21.3l0,0l-21.3-54.9H506.9
		l-22.4,59.9l46.7,6.6l-0.5,25.9H392.5l-3-16.3c10.2-6.4,24.2-13.2,42.2-20.3l0,0l112.3-275.9l-6.1-15.7l66.6-18.3L732.4,396.7z
		 M521.6,296.6H613l-45.7-119.9L521.6,296.6z"/>
	<path class="st1" d="M390.1,57.2v-262.3h375.4V57.2h-7.7v-247.5H397.8V57.2H390.1 M390.1,492.5v307.1h375.4V492.5h-7.7v289.9H397.8
		V492.5H390.1"/>
</g>
<rect x="79.1" y="-208.7" class="st2" width="1001.5" height="1012.8"/>
</svg>
