<svg width="280" height="280" viewBox="0 0 280 280" fill="none" xmlns="http://www.w3.org/2000/svg">
<path d="M181.008 72.4165C181.008 72.4165 167.024 108.1 221.342 140.972C269.581 170.165 220.332 219.072 192.425 227.21C156.275 237.752 115.981 205.995 97.6669 232.118C79.3532 258.241 23.6909 211.51 48.8839 170.713C80.2226 119.963 42.8751 119.179 36.6223 97.0729C32.1346 81.2075 62.3432 37.4827 97.8942 51.1841C127.81 62.7133 133.145 50.3014 140.319 42.992C150.664 32.4499 188.896 39.7232 181.008 72.4165Z" fill="#EBEEF2"/>
<path d="M119.973 190.27C110.941 189.86 100.676 179.048 105.193 176.174C109.709 173.3 109.161 167.279 107.519 166.458C97.392 162.49 94.9285 153.594 92.7389 142.235C90.5493 130.876 91.7809 94.7474 91.7809 94.7474L104.508 88.3152L139.68 86.2624L149.67 102.822C149.67 102.822 146.008 112.708 145.701 122.6C148.099 120.684 152.287 118.045 155.417 119.928C157.443 121.144 158.664 123.043 159.183 125.167C159.857 127.921 159.348 131.063 157.881 133.614C156.862 135.387 155.669 137.156 154.016 138.514C151.678 140.435 148.416 141.525 143.385 140.638C143.588 143.337 148.848 143.452 148.848 146.205C148.848 148.805 148.75 152.774 148.848 154.279C149.669 166.596 156.375 170.839 159.796 174.944C163.217 179.05 129.005 190.681 119.973 190.27Z" fill="#ECD6C6"/>
<path d="M93.8357 139.36C99.3524 139.36 103.825 134.498 103.825 128.499C103.825 122.5 99.3524 117.637 93.8357 117.637C88.319 117.637 83.8468 122.5 83.8468 128.499C83.8468 134.498 88.319 139.36 93.8357 139.36Z" fill="#979797"/>
<path d="M93.8352 137.208C98.2937 137.208 101.908 133.309 101.908 128.499C101.908 123.689 98.2937 119.79 93.8352 119.79C89.3767 119.79 85.7624 123.689 85.7624 128.499C85.7624 133.309 89.3767 137.208 93.8352 137.208Z" fill="#FFF7F3"/>
<path d="M120.179 140.181C125.507 140.181 129.827 135.647 129.827 130.054C129.827 124.461 125.507 119.927 120.179 119.927C114.85 119.927 110.531 124.461 110.531 130.054C110.531 135.647 114.85 140.181 120.179 140.181Z" fill="#979797"/>
<path d="M120.178 138.608C124.42 138.608 127.859 134.779 127.859 130.055C127.859 125.331 124.42 121.501 120.178 121.501C115.936 121.501 112.498 125.331 112.498 130.055C112.498 134.779 115.936 138.608 120.178 138.608Z" fill="#FFF7F3"/>
<path d="M103.344 125.166C103.344 125.166 108.305 123.28 111.573 126.838C111.573 127.454 111.077 128.499 111.077 128.499C111.077 128.499 106.695 125.059 103.344 127.659C102.798 126.583 102.469 125.416 103.344 125.166Z" fill="#979797"/>
<path d="M129.015 127.412L145.55 121.501L145.392 122.964L129.544 129.586L129.015 127.412Z" fill="#979797"/>
<path d="M61.8485 200.274C61.4836 199.283 61.3402 198.224 61.4286 197.172C61.517 196.119 61.8349 195.099 62.36 194.183L66.6001 186.712C66.6001 186.712 67.1475 183.793 79.5556 182.059C91.9637 180.326 103.9 177.208 105.193 176.175C105.193 176.175 127.118 195.008 159.401 174.483C159.401 174.483 185.754 189.358 191.775 189.906C195.312 190.228 198.063 197.191 199.73 202.884C200.006 203.828 200.086 204.82 199.964 205.797C199.841 206.774 199.52 207.715 199.019 208.562C198.518 209.41 197.848 210.145 197.051 210.723C196.254 211.301 195.347 211.709 194.386 211.923C167.743 217.849 75.098 235.67 61.8485 200.274Z" fill="#979797"/>
<path d="M154.017 138.512C150.891 145.952 148.756 149.082 146.249 148.804C143.633 148.514 142.806 144.282 142.981 140.56C148.242 141.583 151.619 140.483 154.017 138.512Z" fill="#979797"/>
<path d="M159.251 124.991C159.229 125.051 159.207 125.111 159.185 125.166C158.665 123.042 157.444 121.143 155.419 119.927C152.206 117.995 147.876 120.825 145.511 122.757C145.96 114.141 145.204 104.392 140.502 102.273C132.291 98.5781 131.957 99.3993 126.855 99.673C122.065 99.9302 110.323 100.669 108.33 99.5142C109.644 100.746 115.846 106.034 125.738 106.516C126.855 107.337 126.132 108.021 125.038 107.884C123.944 107.747 109.026 107.474 97.8041 93.3776C97.8041 93.3776 91.2954 105.552 91.4376 116.506C91.4376 116.506 87.2656 108.294 89.8665 96.5248C91.4376 87.7663 95.4776 88.5868 95.4776 88.5868C95.4776 88.5868 92.7393 69.0176 111.488 70.7967C116.962 71.481 126.268 79.5554 132.564 79.4185C138.859 79.2816 144.607 79.6923 144.607 79.6923C144.607 79.6923 153.502 78.3237 155.008 90.3669C155.073 92.7913 156.823 93.8839 161.577 94.4726C166.477 95.0792 165.682 107.747 159.251 124.991Z" fill="#979797"/>
<path d="M204.011 229.061C216.596 229.061 226.797 218.86 226.797 206.275C226.797 193.69 216.596 183.489 204.011 183.489C191.426 183.489 181.225 193.69 181.225 206.275C181.225 218.86 191.426 229.061 204.011 229.061Z" fill="#979797" stroke="white" stroke-width="15" stroke-miterlimit="10"/>
<path d="M206.679 198.53C203.814 197.28 201.789 198.479 201.31 199.677C200.965 200.541 201.505 201.246 202.078 201.496C203.224 201.997 203.44 200.085 205.605 201.03C206.666 201.493 207.319 202.352 206.912 203.372C206.433 204.569 204.969 204.738 204.021 205.053C203.184 205.339 202.014 205.896 201.251 207.803C200.79 208.956 200.954 209.418 201.824 209.798C202.864 210.252 203.271 209.857 203.44 209.435C203.901 208.282 204.188 207.626 205.737 207.182C206.496 206.967 208.903 206.246 209.736 204.162C210.57 202.078 209.395 199.716 206.679 198.53Z" fill="white"/>
<path d="M200.772 212.11C200.28 211.961 199.729 211.964 199.239 212.116C198.75 212.269 198.36 212.559 198.156 212.925C197.951 213.29 197.948 213.701 198.147 214.069C198.346 214.436 198.73 214.73 199.217 214.887C199.71 215.038 200.263 215.038 200.755 214.886C201.247 214.734 201.639 214.442 201.844 214.075C202.05 213.708 202.052 213.296 201.851 212.927C201.65 212.559 201.262 212.265 200.772 212.11V212.11Z" fill="white"/>
</svg>
